<?xml version="1.0" encoding="UTF-8"?>
<!-- Created with Inkscape (http://www.inkscape.org/) -->
<svg width="3400" height="1159" version="1.2" viewBox="0 0 3400 1159" xmlns="http://www.w3.org/2000/svg">
 <title>nordicgamelab</title>
 <g transform="matrix(.58097 0 0 .58097 712.34 242.83)" stroke-width=".58174">
  <path d="m1122.6 579.5v-577.4h1154.8v1154.8h-1154.8z" fill="#fdfdfd"/>
  <path d="m1122.6 579.5v-577.4h1154.8v1154.8h-1154.8zm189.75 375.07c5.5756-2.2373 12.442-10.715 16.959-20.939 10.999-24.893 16.503-61.746 15.15-101.44-0.9254-27.151-4.4831-49.133-11.062-68.346-9.3806-27.397-21.261-37.9-34.82-30.783-11.402 5.9844-21.982 30.623-27.202 63.346-4.3558 27.306-4.4978 62.613-0.3687 91.709 3.8839 27.369 13.127 52.409 22.899 62.032 5.205 5.1257 12.398 6.8513 18.445 4.4249zm273.11-2.3176c5.9242-3.7962 12.098-12.85 16.112-23.629l2.1319-5.7244-13.331-39.184c-7.3321-21.551-13.331-39.82-13.331-40.598s5.9608-18.64 13.246-39.695c7.2854-21.055 13.241-38.8 13.235-39.433-0.01-0.6336-0.6615-2.7818-1.4563-4.7739-4.4297-11.102-9.6468-19.225-15.105-23.52-2.9895-2.3523-3.8817-2.5939-9.58-2.5939-5.6982 0-6.5905 0.24159-9.58 2.5939-6.5837 5.1804-12.122 14.621-17.096 29.141-4.9897 14.567-8.4242 31.667-10.007 49.824-3.4049 39.055 0.2778 79.156 9.8318 107.06 5.9543 17.391 12.106 26.934 20.228 31.383 3.3956 1.8599 11.174 1.4097 14.702-0.85081zm110.12-0.44565c7.9149-6.2452 14.274-17.901 19.547-35.828 5.2843-17.965 8.3681-39.408 8.8757-61.715l0.2095-9.208-18.982-0.25754c-17.464-0.23693-18.991-0.39131-19.092-1.9314-0.06-0.92062 4.0505-22.839 9.1353-48.707 6.6928-34.048 9.1599-47.427 8.9361-48.461-0.8077-3.7313-8.2-11.123-13.216-13.215-6.9381-2.8937-15.458 1.3826-21.983 11.034-8.3001 12.277-15.607 36.605-18.726 62.353-2.1282 17.564-2.6649 42.395-1.3204 61.09 3.108 43.22 15.235 77.993 30.086 86.266 3.6457 2.0311 13.196 1.2117 16.529-1.4181zm-432.79-108.01 0.086-105.37h-17.493c-9.6214 0-17.524 0.11209-17.56 0.24909-0.037 0.137-0.1514 17.511-0.2547 38.61-0.1676 34.224-0.2461 38.348-0.7277 38.249-0.2968-0.0614-4.8057-9.9018-10.02-21.868-5.2138-11.966-13.072-30.006-17.462-40.091l-7.9817-18.335-0.2351 3.8346c-0.3033 4.9445-0.3483 209.04-0.046 209.92 0.1254 0.36783 16.288 0.55465 35.918 0.41515l35.69-0.25364zm149.98 105.12c0.081-0.41101-2.0656-12.853-4.7707-27.649-2.7051-14.796-4.9951-27.462-5.0888-28.147-0.094-0.6846 0.7742-3.8056 1.9288-6.9355 3.9442-10.693 6.7894-24.034 8.1744-38.33 0.9217-9.5145 1.2505-27.942 0.6847-38.383-1.8501-34.141-11.431-63.115-23.023-69.621-1.997-1.1209-6.4767-1.4185-21.348-1.4185h-18.82v211.23h31.058c17.082 0 31.124-0.33628 31.205-0.74728zm47.002-0.27083c8.3484-3.0708 14.755-12.255 20.856-29.898 6.2507-18.077 9.6743-39.256 10.501-64.959 1.653-51.422-9.499-98.444-26.701-112.58-2.6192-2.1528-3.2128-2.216-23.829-2.5394l-21.143-0.33163v105c0 57.75 0.1019 105.3 0.2265 105.66 0.3709 1.088 37.05 0.7643 40.09-0.35385zm74.401-104.85 0.086-105.37h-37.025v104.95c0 57.723 0.1032 105.25 0.2294 105.62 0.1261 0.37006 8.4177 0.55688 18.426 0.41516l18.196-0.25766zm273.29 105.04c0.098-0.46577-4.1868-22.553-9.5221-49.082-5.3352-26.529-11.591-57.651-13.902-69.159-15.44-76.891-21.072-104.44-21.34-104.37-0.58 0.1406-44.969 221.91-44.569 222.66 0.5419 1.0237 89.117 0.97339 89.332-0.0508zm73.486-108.03c0.048-59.596-0.043-108.36-0.2011-108.36s-8.1447 17.495-17.748 38.878c-12.206 27.178-17.668 38.776-18.152 38.54-0.3801-0.18588-8.4497-17.569-17.932-38.629-9.4827-21.06-17.387-38.44-17.565-38.623-0.2037-0.20911-0.3236 39.711-0.3236 107.77 0 85.552 0.089 108.21 0.4246 108.61 0.2335 0.27772 16.396 0.42718 35.918 0.33212l35.493-0.17283zm171.1 56.544v-51.812l-9.6516-0.2649c-6.428-0.17642-9.8029-0.63316-10.104-1.3675-0.3669-0.89314-0.4529-11.016-0.4529-53.29v-52.188h-35.323v104.95c0 57.723 0.1028 105.25 0.2284 105.62s12.62 0.55536 27.766 0.41515l27.538-0.25491zm90.774 51.463c0.7364-0.62163 0.6453-1.2554-2.2406-15.594-1.6546-8.2201-11.608-57.765-22.118-110.1s-19.301-95.748-19.534-96.474c-0.3446-1.0724-1.2272 2.665-4.7062 19.928-32.38 160.67-40.522 201.67-40.18 202.32 0.4721 0.9012 87.711 0.8186 88.78-0.0841zm45.104-1.4213c5.9182-3.814 10.569-11.239 14.77-23.583 4.2311-12.431 6.0987-25.415 6.0987-42.401 0-16.288-1.6326-28.104-5.3793-38.934l-2.185-6.316 1.5691-6.7681c2.9196-12.593 3.8905-26.991 2.7947-41.44-0.8898-11.733-2.2863-18.955-5.4339-28.102-3.1205-9.0687-5.9525-14.288-9.8764-18.202l-2.7171-2.7104-42.626-0.59073v104.99c0 57.747 0.1135 105.33 0.2521 105.73 0.1385 0.40659 9.2708 0.54279 20.294 0.30264 16.435-0.35806 20.473-0.71461 22.439-1.9813zm-240.32-33.103v-34.375h-7.2345c-5.1739 0-7.3506-0.34055-7.642-1.1957-0.4551-1.335-0.5421-7.6005-0.1319-9.495 0.1933-0.89261 2.2427-1.2982 7.5519-1.4946l7.2867-0.2695v-47.826l-7.1063-0.26983c-4.5428-0.17249-7.269-0.6658-7.5572-1.3675-0.2479-0.6037-0.4508-2.7813-0.4508-4.8391 0-2.0578 0.2029-4.2354 0.4508-4.8391 0.2882-0.70168 3.0144-1.195 7.5572-1.3675l7.1063-0.26982v-68.75h-59.099l-0.172 210.73h59.441zm-227.73-317.65 19.02-28.096 0.1698-18.919c0.1486-16.553 0.24-18.958 0.7309-19.234 0.3085-0.17359 3.3609 3.796 6.7829 8.8212l6.2219 9.1369 19.314-28.263c10.623-15.545 19.454-29.018 19.625-29.941 0.171-0.92298 0.3109-4.9548 0.3109-8.9597v-7.2815l-92.262-270.68-19.411 28.45-19.411 28.45-0.188 28.438-0.8803 0.30005c-0.4841 0.16502-3.343-1.5164-6.3531-3.7364-3.0101-2.2201-5.7859-4.0365-6.1686-4.0365-0.7961 0-38.773 55.444-39.153 57.161-0.1373 0.61994-0.2519 34.781-0.2548 75.914 0 58.329 0.088 75.14 0.4194 76.39 0.6282 2.3723 90.626 134.17 91.62 134.18 0.467 2e-3 9.4082-12.64 19.869-28.093zm-59.694-123c-21.809-63.981-39.653-116.89-39.653-117.59 0-0.69147 5.999-10.005 13.331-20.697l13.331-19.44 19.603 14.471c18.42 13.599 19.798 14.471 22.841 14.471h3.2386v-3.743c0-3.5749-0.4347-5.0176-9.6799-32.127-5.324-15.611-9.68-29.17-9.68-30.131 0-1.3031 3.2828-6.5641 12.905-20.681 7.0977-10.414 13.174-18.934 13.503-18.934 0.7941 0 79.689 231.48 79.509 233.28-0.1438 1.4333-25.564 39.585-26.433 39.672-0.277 0.0278-6.4671-17.367-13.756-38.656l-13.252-38.706-19.387-14.102c-18.209-13.245-19.586-14.101-22.671-14.101h-3.2847v3.241c0 2.9611 1.9807 9.0489 22.935 70.494 16.97 49.763 22.91 67.771 22.841 69.245-0.072 1.5396-3.0282 6.3424-13 21.123-7.0987 10.521-13.06 19.152-13.247 19.18-0.1871 0.0278-18.184-52.297-39.994-116.28z" fill="#d0e7d1"/>
  <path d="m1122.6 579.5v-577.4h1154.8v1154.8h-1154.8zm193.67 373.8c6.5228-4.9798 12.326-14.958 17.439-29.987 8.4097-24.719 12.276-56.476 11.094-91.134-0.9193-26.974-4.186-47.739-10.563-67.144-6.1244-18.637-12.914-29.468-21.097-33.654-3.5791-1.8311-10.725-1.6056-14.371 0.45338-16.039 9.057-28.508 47.837-30.779 95.727-0.7491 15.8-0.3319 32.521 1.2038 48.246 3.8984 39.918 15.796 71.466 29.904 79.293 4.2257 2.3446 12.937 1.4316 17.169-1.7995zm267.32 0.85171c5.3844-2.3809 10.216-7.8845 14.689-16.73 2.6788-5.298 5.6042-12.633 5.6042-14.052 0-0.62108-5.9608-18.611-13.246-39.978-7.2854-21.367-13.246-39.298-13.246-39.846 0-0.54808 5.983-18.552 13.296-40.009 9.4177-27.634 13.236-39.466 13.092-40.568-0.1119-0.8553-1.4714-4.5187-3.0213-8.1408-3.5205-8.228-9.1823-16.528-13.686-20.064-3.1028-2.4358-3.94-2.6664-9.68-2.6664-5.733 0-6.581 0.2329-9.6799 2.6586-6.3255 4.9514-11.834 14.147-16.724 27.919-7.9852 22.489-11.765 48.509-11.747 80.861 0.018 32.095 3.8105 58.479 11.542 80.291 9.0325 25.484 20.268 35.87 32.809 30.325zm112.01-1.303c10.215-8.0249 18.752-27.037 24.03-53.516 2.821-14.154 4.83-34.422 4.83-48.73v-6.569h-18.861c-15.218 0-18.894-0.25162-19.032-1.3028-0.094-0.71654 4.051-22.786 9.2104-49.043 10.86-55.27 10.308-48.454 4.4711-55.127-20.343-23.26-42.894 6.9207-50.284 67.3-1.4244 11.637-2.036 23.214-2.0166 38.173 0.039 30.074 3.2855 54.329 10.111 75.544 6.1891 19.237 12.732 30.03 20.992 34.63 3.6726 2.0452 13.213 1.2614 16.549-1.3596zm-433.15-2.8306 0.7642-0.60079v-212h-35.575l-0.2262 5.0019c-0.1244 2.751-0.2146 19.453-0.2005 37.115 0.014 17.662 0.02 32.726 0.013 33.475-0.01 0.80475-0.2588 1.1732-0.6138 0.90084-0.3304-0.25346-8.4692-18.509-18.086-40.567l-17.486-40.106-0.2212 5.3286c-0.1216 2.9307-0.2362 51.309-0.2547 107.51-0.026 78.254 0.062 102.46 0.374 103.37 0.3118 0.91474 8.6709 1.1925 35.578 1.182 19.344-8e-3 35.514-0.28396 35.935-0.6144zm150.72-0.36078c0.1145-0.54383-2.0923-13.65-4.904-29.126l-5.1123-28.137 2.6546-7.9893c3.2035-9.6411 4.1057-13.186 5.6448-22.183 2.1638-12.648 2.7358-20.621 2.7342-38.116 0-20.637-1.0328-31.811-4.2821-46.413-4.0106-18.023-9.3873-30.233-16.263-36.933l-2.887-2.8131-40.588-0.6273v106c0 58.299 0.1019 106.3 0.2265 106.66 0.3794 1.1132 62.541 0.79188 62.776-0.32453zm46.712-0.0434c9.9504-3.5688 18.613-18.609 24.835-43.121 7.6212-30.021 9.1055-73.097 3.6878-107.02-4.623-28.951-13.37-50.525-24.057-59.333-2.5215-2.0784-3.3051-2.1596-23.92-2.4797l-21.313-0.3309v106c0 58.298 0.1019 106.3 0.2264 106.66 0.3746 1.0988 37.387 0.76288 40.54-0.36799zm74.334-0.32084c0.2799-0.98919 0.3595-29.595 0.2963-106.36l-0.086-105.01h-37.361l-0.086 105.55c-0.069 83.785 0 105.72 0.3397 106.35 0.2343 0.43651 8.5462 0.80053 18.471 0.80892 14.792 0.0125 18.114-0.22868 18.427-1.3378zm346.63 0.73587c0.4708-0.52992 0.5262-12.075 0.5262-109.53 0-61.787-0.1295-109.17-0.2994-109.48-0.1646-0.29854-8.265 17.161-18.001 38.8-9.7358 21.638-17.893 39.338-18.126 39.332-0.2338-6e-3 -8.3728-17.704-18.087-39.33-9.7139-21.626-17.776-39.332-17.916-39.346-0.1401-0.0149-0.2547 48.882-0.2547 108.66 0 85.977-0.088 108.6-0.4208 108.28-0.2313-0.22627-10.456-50.3-22.722-111.28-12.265-60.976-22.449-111.3-22.63-111.83-0.2123-0.62287-1.9882 7.2764-5.0058 22.266-25.589 127.12-40.331 200.56-40.473 201.65-0.121 0.92479 0.2601 1.42 1.3007 1.6902 2.4583 0.63843 161.54 0.75583 162.11 0.11963zm303.22-0.37748c5.3185-1.4078 9.3412-4.9991 13.127-11.72 5.2731-9.36 8.7762-20.768 10.629-34.614 0.8725-6.5193 1.0969-9.8303 1.2321-18.18 0.2968-18.334-1.1085-30.323-4.9265-42.031-1.1714-3.5917-2.1297-7.0074-2.1297-7.5905s0.3999-2.6044 0.8888-4.4919c2.1174-8.1754 3.5266-21.102 3.5266-32.35 0-6.2174-1.0427-18.649-2.0597-24.556-2.0968-12.18-5.7827-22.277-10.677-29.247-5.2223-7.4371-5.6169-7.5365-28.7-7.2251l-20.209 0.27266-0.086 104.95c-0.068 82.201-0.1765 104.86-0.5019 104.54-0.2285-0.22346-1.8089-7.322-3.512-15.774s-11.698-58.187-22.212-110.52-19.304-95.747-19.534-96.471c-0.3383-1.0642-1.4912 4.0094-5.9995 26.404-3.0694 15.247-13.217 65.711-22.55 112.14-9.3331 46.432-17.159 84.431-17.391 84.443-0.3292 0.017-0.4408-11.279-0.5095-51.541l-0.088-51.562-9.833-0.26471c-7.3472-0.19778-9.9003-0.57559-10.099-1.4946-0.1465-0.67642-0.2686-24.657-0.2715-53.291l-0.01-52.061h-36.003v106.03c0 83.895 0.089 106.14 0.4246 106.53 0.7993 0.93867 183.89 0.61552 187.47-0.33087zm-236.29-35.373v-34.873l-7.1063-0.26983c-4.7051-0.17866-7.2644-0.65485-7.5743-1.4093-0.2812-0.68459-0.4272-2.5656-0.3659-4.712l0.1021-3.5726 7.1814-0.26861c5.54-0.2072 7.2687-0.5772 7.5634-1.6187 0.2652-0.93737 0.3541-8.6229 0.2908-25.139l-0.091-23.789-14.765-0.53698-0.2114-2.4715c-0.1164-1.3594-0.1164-3.5837 0-4.9431l0.2114-2.4715 14.765-0.53698 0.089-34.491c0.073-28.252 0.01-34.697-0.3767-35.626-0.3424-0.83358-8.2939-1.067-29.978-0.87987l-29.512 0.25462-0.086 106.37-0.086 106.37 59.951-0.50902zm-227.73-316.85 19.359-28.398v-18.463c0-14.81 0.093-18.567 0.4704-18.992 0.2587-0.29125 3.2754 3.5897 6.7038 8.6243l6.2335 9.1538 39.219-57.499 0.2198-4.2988c0.1208-2.3644 0.1494-6.7846 0.064-9.8228l-0.1562-5.5239-45.652-133.99c-25.109-73.692-45.915-134.42-46.237-134.94-0.4565-0.74619-4.8668 5.3523-20.039 27.71l-19.454 28.667-0.1699 13.949c-0.1626 13.363-0.2007 13.962-0.9049 14.256-0.4043 0.16896-3.1517-1.5124-6.1053-3.7364-2.9537-2.224-5.7184-4.0436-6.1439-4.0436-1.0969 0-39.355 56.306-39.616 58.306-0.2699 2.0634-0.2855 146.65-0.016 150.6 0.1875 2.7505 2.6665 6.532 45.768 69.815 25.063 36.799 45.914 66.932 46.334 66.963 0.421 0.0306 9.4768-12.724 20.124-28.343zm-59.348-123.23c-21.556-63.197-39.341-115.68-39.521-116.63-0.287-1.5139 1.3069-4.1259 12.872-21.093l13.199-19.365 19.501 14.339c18.685 13.739 19.647 14.34 22.982 14.367l3.4814 0.0286v-4.2412c0-4.2275-0.031-4.3327-9.68-32.625-5.324-15.611-9.6799-28.948-9.6799-29.637 0-0.68955 5.8848-9.882 13.077-20.428l13.077-19.174 39.562 116.05c31.11 91.259 39.473 116.31 39.143 117.25-0.4512 1.2928-25.52 38.194-25.947 38.194-0.1414 0-6.2243-17.426-13.518-38.724l-13.26-38.724-19.36-14.134c-19.244-14.049-19.38-14.132-22.756-13.835l-3.3965 0.29852-0.1087 3.8985-0.1087 3.8985 22.95 67.352c12.622 37.044 22.95 67.839 22.95 68.433 0 0.8414-20.55 31.801-25.276 38.078l-0.9912 1.3167z" fill="#a1d0a3"/>
  <path d="m1122.6 579.5v-577.4h1154.8v1154.8h-1154.8zm188.74 377.11c10.263-3.775 18.987-18.344 25.68-42.885 5.4941-20.144 8.1418-43.19 8.1204-70.68-0.024-31.079-3.4496-56.237-10.655-78.254-3.7032-11.316-6.4479-17.296-10.987-23.938-5.3277-7.7963-9.1356-10.477-15.794-11.119-5.802-0.55946-9.238 0.73542-13.926 5.2479-11.97 11.523-22.031 43.075-25.152 78.881-2.1032 24.123-1.4135 52.202 1.8374 74.815 3.4515 24.008 11.508 48.099 19.754 59.066 6.1788 8.2187 13.98 11.493 21.121 8.8662zm274.41-2.8908c3.7895-2.2782 8.1947-7.4372 11.445-13.403 2.978-5.4666 7.0227-15.166 7.0227-16.84 0-0.67559-5.9608-18.71-13.246-40.077s-13.246-39.298-13.246-39.846c0-0.54808 5.983-18.552 13.296-40.009 9.0894-26.671 13.234-39.486 13.1-40.508-0.3002-2.2946-4.6233-12.184-7.6895-17.59-12.478-21.999-29.964-19.117-41.724 6.8771-7.3471 16.241-12.438 38.194-14.722 63.492-0.9072 10.044-1.2456 33.43-0.6552 45.275 2.1342 42.818 13.888 81.068 28.161 91.64 5.6881 4.2132 12.302 4.572 18.259 0.9904zm105.93 1.8814c14.405-6.0079 26.634-35.78 31.244-76.06 1.0057-8.7888 1.9592-25.447 1.8091-31.606l-0.1071-4.3918-18.935-0.25746c-12.652-0.17201-18.935-0.59647-18.935-1.279 0-0.56188 4.1267-22.015 9.1704-47.674 5.0438-25.659 9.1705-47.382 9.1705-48.274 0-0.95334-0.7296-2.7056-1.7711-4.2539-15.872-23.594-35.857-10.929-46.958 29.76-5.6924 20.864-8.229 40.31-8.5784 65.764-0.4725 34.416 2.7769 60.408 10.503 84.016 3.7114 11.341 6.4617 17.324 10.972 23.869 6.74 9.7813 14.854 13.541 22.417 10.387zm-428.29-112.06v-106.61h-36.003l-0.089 37.825c-0.049 20.804-0.2056 38.166-0.348 38.584-0.1424 0.41772-8.2675-17.591-18.056-40.019s-17.923-40.549-18.078-40.269c-0.3329 0.60355-0.3855 215.97-0.053 216.94 0.1253 0.36781 16.518 0.55463 36.427 0.41515l36.199-0.25357zm150.29 106.21c0-0.49335-2.3039-13.544-5.1198-29.001l-5.1198-28.104 2.6815-8.1145c4.2232-12.78 6.1578-22.449 7.6046-38.006 0.9925-10.673 1.0769-33.331 0.1632-43.841-2.1131-24.307-8.2752-46.371-16.003-57.302-6.1372-8.6807-5.4014-8.4586-28.021-8.4586h-19.869l-0.088 105.62c-0.048 58.089-0.015 106.18 0.074 106.86 0.1278 0.98413 6.8279 1.2455 31.929 1.2455 18.605 0 31.768-0.37165 31.768-0.89698zm51.007-1.809c6.3894-5.2851 11.127-13.309 16.019-27.129 4.3167-12.196 7.5747-27.02 9.36-42.587 2.0411-17.798 2.2814-44.726 0.5629-63.085-3.1539-33.691-12.718-63.05-23.964-73.558-4.8498-4.5317-5.5861-4.6579-27.172-4.6579h-20.549l-0.088 105.62c-0.048 58.089-0.012 106.2 0.08 106.9 0.1348 1.0381 4.3277 1.226 21.655 0.97065 20.829-0.30695 21.568-0.38276 24.095-2.473zm69.824-104.16-0.086-106.86-18.472-0.25774c-13.36-0.1864-18.6 0.0542-18.935 0.86929-0.3854 0.9383-0.4629 18.612-0.4629 105.54 0 57.429 0.093 105.13 0.2062 105.99 0.1845 1.4109 2.1777 1.5761 19.022 1.5761h18.816zm347.14 43.093c0.1387-82.392-0.2174-157.71-0.743-157.12-0.212 0.23868-8.3035 18.022-17.981 39.518-11.355 25.223-17.8 38.928-18.171 38.643-0.3165-0.24282-8.4866-18.021-18.156-39.507-9.9029-22.006-17.745-38.767-17.958-38.382-0.2743 0.49743-0.3426 30.04-0.2498 108.15 0.078 65.688 0.01 107.51-0.1878 107.58-0.1735 0.06-10.357-49.819-22.631-110.84-14.691-73.042-22.499-110.95-22.853-110.95-0.3544 0-8.2578 38.382-23.137 112.36-12.429 61.799-22.599 112.8-22.599 113.34 0 0.6374 28.64 0.89033 82.28 0.72661l82.28-0.25111zm66.125 27.4v-35.87l-14.605-0.99637v-7.971l14.786-0.53715-0.182-51.274-14.605-0.99637-0.2108-7.4728h6.9554c3.8256 0 7.1973-0.27215 7.4928-0.60479 0.4761-0.53595 0.5373-4.6762 0.5373-36.373v-35.768l-60.287 0.50896-0.087 105.62c-0.048 58.089-0.014 106.18 0.075 106.87 0.129 0.99321 6.3387 1.1985 30.146 0.99637l29.984-0.25451zm238.94 35.335c5.1287-2.365 10.08-8.8078 14.189-18.464 5.1848-12.183 8.0537-27.532 8.462-45.271 0.4052-17.605-1.235-31.436-5.1633-43.541-1.1892-3.6643-2.0647-7.1356-1.9458-7.714 0.1191-0.57843 0.7373-3.1892 1.374-5.8017 3.4612-14.204 3.8974-36.469 1.0584-54.036-2.6393-16.331-8.7228-30.391-15.597-36.046-2.0278-1.6682-3.924-1.8162-23.266-1.8162h-21.058l-0.1698 103.79c-0.093 57.084-0.2959 104.16-0.45 104.61-0.1542 0.45201-0.4126 0.15302-0.5745-0.66443-11.662-58.909-44.537-220.77-44.88-220.97-0.3208-0.18682-8.02 37.181-22.841 110.86-12.297 61.127-22.489 111.38-22.649 111.67-0.1603 0.2907-0.3337-22.373-0.3854-50.366-0.081-43.951-0.1634-51.023-0.6034-51.839-0.2893-0.53633-4.6539-0.95094-10.102-0.95961l-9.5921-0.0153-0.088-53.057-0.088-53.057-17.979-0.258c-14.158-0.20316-18.037 9e-3 -18.251 0.99638-0.3258 1.5052-0.3806 211.37-0.055 212.32 0.3874 1.1364 188.18 0.77302 190.66-0.36887zm-466.92-351.31c10.688-15.686 19.545-29.025 19.682-29.642 0.1372-0.61673 0.2519-9.0799 0.2547-18.807 0-10.638 0.1353-17.686 0.3316-17.686 0.1796 0 3.0905 4.0246 6.4688 8.9436l6.1423 8.9436 39.708-58.232v-19.945l-92.278-270.68-39.675 58.458-0.1698 13.949c-0.1505 12.362-0.2358 13.934-0.7497 13.818-0.3189-0.0722-3.2229-2.0425-6.4533-4.3784l-5.8734-4.2471-39.569 58.081 2e-4 77.467 2e-4 77.467 45.937 67.452c25.265 37.099 46.134 67.476 46.374 67.504 0.2403 0.0288 9.1815-12.782 19.869-28.468zm-59.281-125.67c-21.622-63.433-39.314-115.67-39.314-116.08 0-0.40872 5.8329-9.301 12.962-19.761l12.962-19.017 19.812 14.531c18.485 13.558 20.026 14.531 23.004 14.531 3.495 0 3.6047-0.19216 3.6047-6.3154 0-2.8155-1.0642-6.2837-9.6799-31.547-5.324-15.611-9.68-28.946-9.68-29.633 0-1.2334 24.73-38.121 25.557-38.121 0.2348 0 18.129 51.93 39.764 115.4 30.517 89.525 39.236 115.64 38.889 116.47-0.731 1.7399-25.031 37.154-25.493 37.154-0.2336 0-6.3239-17.301-13.534-38.447l-13.109-38.447-19.597-14.361c-18.661-13.675-19.759-14.361-22.98-14.361h-3.383v10.468l22.756 66.752c12.516 36.713 22.756 67.204 22.756 67.757 0 0.90566-25.122 38.357-25.73 38.357-0.1398 0-17.945-51.899-39.568-115.33z" fill="#7dbe80"/>
  <path d="m1122.6 579.5v-577.4h1154.8v1154.8h-1154.8zm190.87 376.64c15.294-7.8958 27.836-43.58 31.122-88.545 1.6564-22.671 0.6473-50.788-2.579-71.86-2.5409-16.595-8.599-37.503-13.788-47.585-11.147-21.658-25.335-25.5-37.548-10.165-8.4634 10.627-16.862 35.417-20.367 60.117-2.5535 17.994-3.6041 41.664-2.7148 61.166 2.1892 48.009 15.193 88.282 31.262 96.82 3.5017 1.8607 11.058 1.8878 14.613 0.0524zm270.58-1.0499c7.4757-3.8244 14.932-14.835 19.476-28.76l1.1746-3.5992-27.143-79.718 13.174-37.981c7.2456-20.889 13.322-38.791 13.502-39.78 0.2658-1.457 0.047-2.5737-1.1518-5.8689-3.725-10.242-7.7504-17.423-12.642-22.552-7.9349-8.3197-17.775-8.5995-25.601-0.72795-8.4464 8.4954-16.026 26.847-20.99 50.822-3.8491 18.589-5.6983 44.026-4.8935 67.314 0.5353 15.488 1.4518 25.192 3.6013 38.127 4.6941 28.247 12.986 49.616 22.944 59.132 5.2746 5.0401 12.851 6.5075 18.55 3.5924zm112.54-1.8768c14.012-11.487 25.024-46.284 27.689-87.501 0.2824-4.3679 0.5135-11.255 0.5135-15.304v-7.3628h-18.83c-10.357 0-18.904-0.34784-18.993-0.77297-0.09-0.42514 4.0259-22.059 9.1455-48.075 5.1197-26.016 9.3107-47.856 9.3133-48.533 0-0.67712-0.874-2.5267-1.9481-4.1101-15.132-22.307-33.419-13.03-45.109 22.883-7.4424 22.864-10.78 47.357-10.78 79.106 0 20.616 1.0134 33.897 3.869 50.706 5.2739 31.043 15.802 54.594 27.254 60.967 1.6765 0.93288 4.3364 1.2421 8.5475 0.99355 5.3405-0.31515 6.5202-0.69408 9.3284-2.9961zm-433.58-2.1676c0.4853-0.54629 0.5372-10.954 0.5372-107.61v-107h-18.135c-16.223 0-18.157 0.16613-18.341 1.5761-0.1134 0.86683-0.2062 18.129-0.2062 38.36 0 20.231-0.087 36.784-0.1932 36.784-0.1063 0-8.0619-18.047-17.679-40.104-9.6173-22.057-17.649-40.271-17.847-40.475-0.1988-0.2038-0.4942 0.24457-0.6566 0.99637-0.1623 0.7518-0.2975 49.422-0.3003 108.16 0 95.767 0.05 106.95 0.5285 108.36 0.4784 1.4035 4.2239 1.5657 36.145 1.5657 19.586 0 35.853-0.27215 36.148-0.60479zm150.58-1.4031c0.054-0.83035-2.1214-13.711-4.8353-28.623-2.7139-14.912-4.9344-27.55-4.9344-28.084s1.11-4.2435 2.4667-8.2431c4.2305-12.472 6.8045-26.313 7.9134-42.554 0.7758-11.363 0.5285-32.315-0.5047-42.763-2.7772-28.082-10.71-51.397-20.463-60.142-2.4407-2.1885-2.8877-2.2383-22.953-2.5598l-20.464-0.32784v106.99c0 58.843 0.1027 107.29 0.2282 107.66 0.1255 0.36814 14.452 0.55496 31.837 0.41515 27.922-0.22454 31.621-0.43029 31.708-1.7639zm49.677-0.25988c3.8256-2.7499 7.9538-7.6092 10.73-12.631 12.552-22.701 19.41-62.794 17.822-104.19-0.9476-24.704-4.1208-44.825-9.8687-62.576-4.9681-15.343-10.365-24.93-17.334-30.789-2.4642-2.072-3.2544-2.1536-24.2-2.4996l-21.652-0.3576v106.99c0 58.846 0.1104 107.32 0.2452 107.71 0.1348 0.39554 9.6492 0.54261 21.143 0.32683 17.677-0.33188 21.239-0.63784 23.114-1.9853zm71.086 1.0223c0.5378-1.1605 0.5712-8.4815 0.4895-107.36l-0.088-106.11h-38.04l-0.086 106.01c-0.063 77.505 0.016 106.37 0.2963 107.36 0.5403 1.9098 36.546 2.0132 37.429 0.10757zm346.82 0.63791c0.4821-0.54277 0.5348-11.431 0.5348-110.63 0-95.136-0.067-110.1-0.4919-110.58-0.3708-0.41731-23.875 50.587-35.764 77.608-0.2821 0.64106-0.678 0.4702-1.1888-0.51312-0.4212-0.81081-8.4649-18.574-17.875-39.475s-17.319-38.001-17.577-38.001c-0.3947 0-0.468 16.965-0.468 108.31 0 67.736-0.1198 107.95-0.3198 107.36-0.1759-0.52061-8.2999-40.627-18.053-89.126-9.7533-48.499-19.762-98.268-22.242-110.6-2.4797-12.33-4.7107-22.541-4.9578-22.691-0.2751-0.16656-5.7155 25.919-14.027 67.255-7.4675 37.14-17.67 87.857-22.671 112.7-5.0018 24.847-9.0941 45.734-9.0941 46.415 0 0.68059 0.1016 1.5357 0.2259 1.9003 0.282 0.8271 163.23 0.88477 163.97 0.058zm303.67-0.42076c4.015-1.3296 7.446-4.1385 10.458-8.5619 5.6495-8.2962 9.9283-20.205 12.123-33.743 1.6515-10.186 2.1749-16.84 2.1558-27.41-0.029-15.895-1.708-28.161-5.3039-38.742-1.8017-5.3017-2.036-6.3998-1.68-7.8715 2.6629-11.009 3.8509-20.259 4.0587-31.602 0.321-17.518-1.4669-30.957-5.845-43.936-3.0754-9.1175-6.1589-14.873-10.193-19.027l-2.7172-2.7976h-43.475l-0.086 103.87c-0.048 57.13-0.204 103.87-0.3476 103.87s-10.295-49.881-22.558-110.85c-12.263-60.966-22.5-110.97-22.748-111.12-0.2792-0.16811-8.6159 40.357-21.83 106.11-11.758 58.512-21.922 108.85-22.586 111.87l-1.2088 5.4801-0.1698-51.313-0.1698-51.313-9.833-0.2647c-7.3473-0.19778-9.9004-0.5756-10.099-1.4946-0.1464-0.67642-0.2686-24.661-0.2714-53.299l-0.01-52.069-36.512 0.51549-0.086 106.55c-0.069 84.583 0 106.71 0.3396 107.34 0.6529 1.2124 184.92 1.0152 188.59-0.2019zm-236.73-36.336v-35.87l-7.1063-0.26983c-4.7052-0.17866-7.2645-0.65485-7.5744-1.4093-0.2573-0.62669-0.422-2.2988-0.3659-3.7157l0.1021-2.5762 7.1814-0.2686c5.5379-0.20713 7.2688-0.57742 7.5632-1.618 0.2656-0.93881 0.3541-8.8906 0.2908-26.135l-0.091-24.786-7.3665-0.26835c-7.0024-0.25509-7.3771-0.36592-7.5801-2.2418-0.1174-1.0854-0.1174-2.8616 0-3.947 0.203-1.8759 0.5777-1.9868 7.5801-2.2418l7.3665-0.26835 0.089-35.254c0.064-25.189-0.021-35.643-0.2963-36.617-0.3209-1.134-5.3393-1.3631-29.866-1.3631-16.214 0-29.722 0.27215-30.017 0.60479-0.4853 0.54629-0.5372 10.955-0.5372 107.61v107.01l60.627-0.5089zm-227.9-316.15 19.36-28.594 0.093-17.909c0.051-9.8499 0.2215-18.286 0.3785-18.746 0.157-0.46049 3.0976 3.2806 6.5348 8.3134l6.2495 9.1507 19.735-28.95c11.087-16.265 19.829-29.669 19.949-30.59 0.118-0.90196 0.2145-5.2988 0.2145-9.7708v-8.1309l-92.72-272.02-19.871 29.141-19.871 29.141v13.483c0 10.391-0.105 13.602-0.4579 13.999-0.2519 0.2835-3.1795-1.4901-6.5059-3.9414l-6.0479-4.4568-19.732 28.938c-10.852 15.916-19.844 29.445-19.981 30.065-0.1373 0.61996-0.2519 35.23-0.2548 76.91 0 59.126 0.088 76.136 0.4194 77.387 0.6282 2.3723 91.305 135.17 92.299 135.17 0.467 2e-3 9.5611-12.864 20.209-28.591zm-59.524-125.99c-21.529-63.159-39.144-115.17-39.144-115.58 0-1.2903 25.089-37.614 25.981-37.614 0.4676 0 9.348 6.2919 19.734 13.982l18.884 13.982 7.2368-0.56365 0.106-4.9135 0.1061-4.9136-9.7464-28.604c-9.7175-28.52-9.7439-28.609-8.9368-30.121 0.4452-0.83403 6.274-9.5124 12.953-19.285l12.144-17.769 39.228 115.07c21.575 63.291 39.228 115.53 39.228 116.08 0 0.5523-5.7567 9.4444-12.793 19.76l-12.793 18.756-13.134-38.521-13.134-38.521-19.501-14.398c-18.641-13.763-19.654-14.4-22.973-14.443-1.9095-0.0251-3.629 0.23932-3.8211 0.58756-0.192 0.34823-0.3492 2.5135-0.3492 4.8118v4.1786l22.607 66.256c12.434 36.441 22.755 67.034 22.935 67.984 0.2872 1.5135-1.2316 4.0158-12.246 20.177-6.9159 10.147-12.766 18.449-13.001 18.449s-18.042-51.675-39.571-114.83z" fill="#71b873"/>
  <path d="m1122.6 579.5v-577.4h1154.8v1154.8h-1154.8zm188.84 378.09c3.5459-1.3456 7.5151-4.4943 10.593-8.4034 7.8392-9.9556 15.552-31.464 19.446-54.231 2.8584-16.71 3.997-31.712 3.9858-52.513-0.014-25.255-2.4029-47.127-7.2375-66.255-6.575-26.014-15.668-42.317-26.099-46.791-3.456-1.4824-11.449-0.66942-14.708 1.4962-10.066 6.6878-19.128 26.13-24.83 53.273-6.3568 30.26-7.2884 70.711-2.414 104.83 3.0591 21.411 10.234 44.368 17.532 56.095 6.7524 10.85 15.684 15.555 23.731 12.502zm270.02-0.98991c6.3414-1.9402 11.431-7.1121 16.484-16.75 3.2609-6.2194 6.6115-14.557 6.6115-16.451 0-0.63686-5.9608-18.64-13.246-40.007-7.2854-21.367-13.246-39.298-13.246-39.846 0-0.54808 5.9983-18.597 13.33-40.109 11.451-33.6 13.278-39.358 12.961-40.856-0.666-3.1514-5.013-13.324-7.6098-17.808-10.472-18.082-24.625-19.989-35.627-4.801-8.2733 11.421-16.285 35.775-19.588 59.545-2.2683 16.321-2.6767 22.958-2.6783 43.521 0 20.628 0.4851 28.736 2.6675 44.439 3.0103 21.661 10.165 44.715 17.57 56.614 6.5478 10.521 14.441 14.935 22.372 12.508zm110.22-9e-3c5.818-2.4266 11.572-8.8208 16.175-17.976 3.0165-5.9992 8.4211-21.635 10.423-30.155 3.3648-14.318 5.4284-29.163 6.3358-45.577 0.6246-11.3 0.6637-18.032 0.1138-19.645-0.3071-0.90091-5.0047-1.1956-19.057-1.1956-14.785 0-18.613-0.25806-18.476-1.2455 0.095-0.68501 4.3049-22.244 9.3552-47.909 5.0503-25.665 9.107-47.24 9.0149-47.945-0.1933-1.4774-4.4611-7.525-7.3935-10.477-7.0019-7.0481-16.621-7.0218-24.015 0.0658-11.319 10.849-20.624 37.31-24.587 69.916-3.5863 29.507-2.7473 66.285 2.1078 92.395 5.9461 31.977 16.848 54.561 28.802 59.668 2.8466 1.2161 8.3822 1.2554 11.201 0.0795zm-427.87-111.95c0.063-77.873-0.016-106.87-0.2963-107.86-0.3134-1.1079-3.5698-1.353-17.975-1.353-9.6757 0-17.834 0.27215-18.13 0.60479-0.4769 0.53681-0.5373 4.8608-0.5373 38.467 0 30.949-0.082 37.77-0.4482 37.358-0.2466-0.27755-8.2209-18.323-17.721-40.101s-17.513-39.646-17.808-39.706c-0.4836-0.0989-0.5436 10.355-0.6227 108.5-0.048 59.733-0.014 109.17 0.075 109.85 0.129 0.99384 7.6629 1.198 36.769 0.99638l36.607-0.25357zm150.21 105.61c0-0.76735-2.3065-14.056-5.1256-29.53l-5.1256-28.135 2.7021-8.0828c4.1691-12.471 6.1463-22.36 7.5925-37.974 1.0116-10.921 1.0955-32.446 0.1691-43.342-1.3599-15.995-4.3916-31.153-8.5809-42.905-2.9074-8.1559-4.8475-12.058-8.3853-16.864-5.53-7.5131-4.8856-7.3284-27.002-7.7361-14.892-0.27451-19.93-0.0729-20.294 0.81179-0.4126 1.0046-0.4835 16.752-0.4835 107.5 0 58.478 0.1019 106.62 0.2265 106.99 0.1245 0.36534 14.644 0.66425 32.266 0.66425 27.239 0 32.04-0.20905 32.04-1.3952zm49.079-0.49156c6.6144-4.0259 12.09-12.556 17.212-26.815 8.578-23.877 12.142-49.209 11.734-83.391-0.3459-28.935-3.7243-51.594-10.781-72.303-5.9102-17.346-12.701-27.357-20.883-30.783-3.6019-1.5083-41.019-1.3637-41.539 0.16056-0.3119 0.915-0.4076 26.135-0.4076 107.44 0 58.436 0.1019 106.55 0.2264 106.91 0.1246 0.36534 9.4861 0.65836 20.803 0.65116 18.761-0.012 20.847-0.17728 23.634-1.8736zm71.666-106.22v-107.61l-18.85-0.26017c-17.42-0.24041-18.883-0.13145-19.275 1.4359-0.5571 2.2258-0.6268 209.58-0.071 212.62 0.344 1.8858 0.84 1.929 19.275 1.6782l18.922-0.25745zm347.23 60.281c0.059-26.03 0-76.174-0.1261-111.43-0.219-60.194-0.2692-64.074-0.8234-63.649-0.3247 0.24903-8.4943 18.024-18.155 39.501s-17.788 38.909-18.06 38.74c-0.2728-0.16952-8.3741-17.795-18.003-39.167-9.6288-21.372-17.763-38.859-18.075-38.859-0.5282 0-0.5596 7.5844-0.4475 108.11 0.084 75.454 0.013 107.81-0.236 107.11-0.196-0.54801-10.321-50.541-22.499-111.1-12.178-60.555-22.313-110.42-22.52-110.81-0.2077-0.39297-0.6241 0.0554-0.9254 0.99637-1.1666 3.6434-45.513 225.66-45.339 226.99 0.157 1.2006 12.025 1.3658 82.643 1.1508l82.46-0.25112zm66.124 10.462v-36.866l-14.817-0.5374 0.1059-3.2186 0.106-3.2186 14.605-0.99637 0.091-25.836c0.07-20.005-0.01-26.017-0.3396-26.638-0.2367-0.44079-3.6019-0.80832-7.4781-0.81671l-7.0477-0.0153v-5.9783l6.7081-0.0136c3.6894-8e-3 7.0537-0.28539 7.4763-0.61758l0.7684-0.60397-0.089-36.497-0.089-36.497-30.207-0.25452c-23.941-0.20171-30.264 5e-3 -30.478 0.99638-0.1489 0.68799-0.2731 48.8-0.276 106.92 0 81.134 0.09 105.94 0.4042 106.87 0.3146 0.92286 7.374 1.1421 30.483 0.94656l30.074-0.25445zm241.49 34.74c5.9493-5.2115 10.169-12.402 13.943-23.761 5.1697-15.558 7.2803-36.631 5.7671-57.58-0.6546-9.0619-2.2948-17.797-4.8045-25.586l-2.077-6.446 1.3512-5.8066c2.0472-8.7982 3.0351-18.18 3.0626-29.084 0.013-4.9674-0.1712-11.498-0.4084-14.512-1.9341-24.582-10.286-45.484-19.899-49.798-1.5323-0.68762-9.3906-0.96724-22.239-0.79134l-19.869 0.27203-0.086 103.08c-0.048 56.694-0.2078 103.44-0.3559 103.87-0.1482 0.43466-3.3114-14.341-7.0293-32.835-3.7179-18.494-13.699-68.15-22.18-110.35s-15.559-77.15-15.728-77.675c-0.1938-0.60074-0.4949-0.40434-0.8136 0.53068-0.2783 0.81641-10.403 50.677-22.499 110.8-12.096 60.124-22.146 109.32-22.333 109.32-0.2208 3e-3 -0.3705-17.398-0.4277-49.701l-0.088-49.705-0.761-0.5984c-0.4186-0.32912-4.926-0.60453-10.016-0.61201l-9.2554-0.0136v-52.11c0-39.202-0.101-52.407-0.4076-53.306-0.5878-1.7244-35.958-1.7244-36.546 0-0.595 1.7457-0.591 212.09 0 213.83 0.321 0.94155 21.443 1.1454 95.865 0.92493l95.454-0.28271zm-469.84-349.22c10.521-15.412 19.397-28.708 19.724-29.548 0.5244-1.3461 0.5944-3.6177 0.5944-19.306 0-9.7792 0.078-17.78 0.1735-17.78 0.096 0 2.7685 3.8111 5.9401 8.4692 3.2881 4.8292 6.1695 8.4404 6.7043 8.4022 0.5161-0.0369 9.6426-12.917 20.298-28.646l19.36-28.579 0.186-20.924-46.315-135.84-46.315-135.84-19.839 29.094c-10.911 16.002-19.951 29.602-20.088 30.222-0.1373 0.61996-0.2519 7.1161-0.2548 14.436 0 10.221-0.1037 13.203-0.4297 12.852-0.2335-0.25085-3.0993-2.3823-6.3684-4.7366l-5.9438-4.2805-39.739 58.581v156.43l45.958 67.504c25.277 37.127 46.243 67.504 46.592 67.504s9.2424-12.61 19.764-28.022zm-58.901-127.16c-21.438-62.881-38.978-114.89-38.978-115.58 0-0.68682 5.68-9.5825 12.622-19.768l12.622-18.519 19.812 14.531c18.414 13.506 20.035 14.531 22.973 14.531 2.0055 0 3.3098-0.437 3.5684-1.1956 0.2241-0.65761 0.4076-3.2033 0.4076-5.657v-4.4614l-9.7442-28.696c-5.3593-15.783-9.677-28.88-9.595-29.106 0.4086-1.1241 24.829-36.5 25.197-36.5 0.2348 0 18.067 51.75 39.627 115l39.2 115-25.582 37.507-13.164-38.495c-7.2401-21.172-13.47-38.748-13.843-39.057-0.3736-0.30894-9.3912-6.8708-20.039-14.582-18.887-13.678-19.439-14.013-22.586-13.741l-3.2267 0.27866-0.095 5.4801-0.095 5.4801 22.766 66.754c12.521 36.715 22.766 67.091 22.766 67.502 0 0.73397-24.888 37.619-25.383 37.619-0.1392 0-17.793-51.448-39.231-114.33z" fill="#4ba54f"/>
  <path d="m1122.6 579.5v-577.4h1154.8v1154.8h-1154.8zm191.5 377.6c7.3618-4.0968 13.636-13.718 19.302-29.599 5.5562-15.573 9.3699-34.027 11.173-54.069 1.0995-12.219 1.495-34.351 0.8462-47.366-1.9163-38.447-10.29-71.181-22.563-88.201-8.3927-11.638-18.968-13.619-28.49-5.3354-3.5447 3.0837-9.2956 12.054-12.364 19.286-7.0879 16.705-11.851 37.952-14.084 62.831-0.722 8.0413-0.8035 11.025-0.7893 28.895 0.015 18.44 0.084 20.671 0.9324 29.891 3.2866 35.727 12.867 66.566 24.455 78.716 2.9925 3.1377 7.0044 5.8128 10.259 6.8407 2.2843 0.72148 8.4924-0.31429 11.322-1.889zm380.8-1.3918c15.921-10.388 28.219-49.99 30.192-97.221 0.2061-4.9321 0.3727-10.088 0.3704-11.458-0.01-5.7359 0.9545-5.4373-19.307-5.9783l-18.659-0.49818 9.1247-46.332c5.0186-25.482 9.13-47.369 9.1363-48.638 0.01-1.9256-0.4511-2.9394-2.7905-6.1393-6.3639-8.7047-11.042-11.445-18.256-10.696-7.6991 0.80009-13.677 6.2184-19.82 17.965-14.38 27.496-20.834 77.438-16.505 127.72 1.6187 18.802 6.5597 41.821 11.837 55.146 6.8205 17.221 12.596 24.604 22.28 28.482 2.1629 0.86626 9.6414-0.55063 12.397-2.3488zm-107.9-0.91197c4.0557-3.2195 8.0114-8.2965 11.147-14.307 3.3338-6.3906 6.7423-15.267 6.7423-17.558 0-0.8879-5.999-19.248-13.331-40.8l-13.331-39.186 13.331-38.862c7.3321-21.374 13.331-39.416 13.331-40.093 0-1.6803-2.7781-9.4338-5.315-14.834-2.4684-5.2539-6.892-11.776-9.9372-14.651-7.6474-7.2206-17.159-7.1891-24.656 0.0817-13.369 12.965-23.899 49.061-26.141 89.608-2.0758 37.548 1.8842 73.693 10.987 100.28 5.6276 16.44 11.735 26.276 19.4 31.242 4.1101 2.6635 13.894 2.1541 17.774-0.92538zm-323.13-4.079c0.236-1.2937 0.3516-36.643 0.3516-107.54 0-94.681-0.055-105.77-0.5337-107.18-0.4716-1.3834-2.5995-1.5657-18.276-1.5657-13.662 0-17.874 0.28644-18.315 1.2455-0.5168 1.1235-0.5813 4.8832-0.6593 38.385l-0.086 37.14-10.529-24.124c-5.791-13.268-13.711-31.439-17.6-40.378-3.8888-8.9395-7.2732-16.254-7.5208-16.254s-0.543 0.70922-0.6564 1.5761c-0.1134 0.86682-0.2062 50.322-0.2062 109.9 0 82.924 0.096 108.6 0.4076 109.52 0.3119 0.91509 8.9565 1.1956 36.84 1.1956 35.672 0 36.44-0.0403 36.784-1.9272zm150.4-0.0777c0.054-0.82872-2.2047-14.17-5.0201-29.647l-5.1191-28.14 2.3226-6.7208c4.1137-11.904 6.6166-24.761 7.9594-40.887 1.0072-12.096 0.9918-32.188-0.034-43.551-1.459-16.171-4.2153-29.654-8.5681-41.912-4.1125-11.582-8.0484-18.217-13.368-22.535-2.633-2.1373-3.3285-2.2169-22.455-2.5711-17.925-0.33192-19.789-0.21576-20.294 1.2646-0.5075 1.4888-0.5556 10.846-0.5556 107.97 0 81.629 0.095 106.62 0.4093 107.54 0.3147 0.92333 7.8256 1.142 32.516 0.94656 28.339-0.2243 32.119-0.43094 32.206-1.7609zm50.294-0.86574c8.0513-6.5332 14.581-19.038 19.746-37.811 9.9804-36.28 10.897-88.975 2.2139-127.26-6.3421-27.961-15.991-45.578-26.988-49.275-1.5949-0.5362-11.333-0.97858-21.641-0.98309-16.587-7e-3 -18.802 0.17181-19.275 1.5576-0.4785 1.4037-0.5338 12.495-0.5338 107.18 0 72.549 0.1129 106.23 0.3604 107.59 0.3545 1.943 0.7116 1.9698 21.822 1.6413 21.194-0.32984 21.497-0.36272 24.295-2.6327zm70.293 1.6751c0.5915-1.7351 0.5915-214.08 0-215.82-0.3071-0.90081-4.9904-1.1956-18.992-1.1956-10.222 0-18.827 0.27215-19.122 0.60479-0.4853 0.54634-0.5372 11.035-0.5372 108.52 0 85.401 0.089 108.02 0.4245 108.42 0.2335 0.2764 8.8385 0.53795 19.122 0.58121 14.12 0.0594 18.797-0.21405 19.105-1.117zm347.21-1.0497c0.2371-1.5264 0.2619-37.496 0.078-112.34-0.2707-109.92-0.2722-110.1-0.964-110.04-0.3812 0.0312-8.5992 17.63-18.262 39.108-9.6632 21.478-17.758 39.046-17.988 39.039-0.2301-7e-3 -5.0799-10.384-10.778-23.061-21.936-48.807-25.081-55.641-25.609-55.641-0.2993 0-0.5611 0.78465-0.5818 1.7437-0.021 0.95901-0.01 49.271 0.028 107.36 0.043 69.139-0.049 105.27-0.2678 104.62-0.2667-0.79652-19.627-96.811-41.138-204.01-1.7325-8.6341-3.273-15.922-3.4235-16.194-0.649-1.1766-1.3443 1.3635-4.0335 14.735-1.5672 7.7927-11.637 57.885-22.378 111.32s-19.737 98.031-19.992 99.112c-0.5787 2.4557-0.5967 5.1833-0.039 5.844 0.2335 0.2764 37.454 0.53795 82.711 0.58121l82.287 0.0786 0.3488-2.2453zm66.14 1.0497c0.302-0.88599 0.4075-10.554 0.4075-37.329 0-34.704-0.026-36.174-0.6569-37.165-0.3903-0.61269-3.4238-1.0314-7.4723-1.0314h-6.8152v-4.943l14.775-0.53705v-53.804l-14.775-0.53705v-5.9005l14.775-0.53705 0.089-36.799c0.07-28.778 0-36.973-0.3397-37.598-0.2358-0.4392-13.988-0.8054-30.56-0.81379-29.446-0.0149-30.14 0.0286-30.483 1.912-0.236 1.2937-0.3516 36.643-0.3516 107.54 0 94.681 0.055 105.77 0.5337 107.18 0.4772 1.3997 3.7109 1.5657 30.5 1.5657 22.854 0 30.063-0.28377 30.374-1.1956zm241.39-1.5497c8.2195-6.7978 15.169-22.341 18.209-40.725 3.9196-23.706 2.8048-49.164-2.9346-67.012l-2.1417-6.66 0.6637-2.4571c2.3044-8.5315 3.6956-21.004 3.6956-33.133 0-17.297-1.7539-29.744-5.94-42.157-4.2579-12.626-9.1745-19.809-15.228-22.247-3.5563-1.4327-40.44-1.4674-41.35-0.0389-0.643 1.0095-0.657 3.2154-0.657 103.79 0 56.517-0.113 102.43-0.2511 102.02s-10.189-50.131-22.335-110.5c-12.616-62.707-22.315-109.9-22.622-110.07-0.5968-0.33716-0.078-2.805-14.918 71.023-5.2873 26.304-12.822 63.743-16.745 83.197-3.9221 19.454-8.4259 41.873-10.008 49.819s-3.0479 15.077-3.2567 15.847c-0.2816 1.0379-0.4235-11.442-0.5495-48.324l-0.1698-49.723-19.869-0.52829v-52.224c0-46.147-0.062-52.406-0.5338-53.789-0.4718-1.3842-2.6086-1.564-18.426-1.5505-10.682 9e-3 -18.097 0.39597-18.402 0.96004-0.4477 0.83024-0.5095 13.938-0.5095 108.13 0 94.186 0.062 107.3 0.5095 108.14 0.3218 0.60171 35.61 0.86363 95.78 0.71094l95.271-0.24178zm-469.41-350.19c14.862-21.796 19.896-29.619 20.035-31.137 0.1021-1.1147 0.1877-9.3127 0.1902-18.218 0-8.9051 0.083-16.191 0.1783-16.191 0.096 0 2.7685 3.8111 5.94 8.4692 3.1716 4.6581 6.0357 8.4457 6.3647 8.4171 0.3289-0.0287 9.4629-13.143 20.298-29.144l19.7-29.092 0.098-10.416 0.098-10.416-46.288-135.8c-26.394-77.436-46.544-135.8-46.885-135.8-0.3284 0-9.441 12.973-20.25 28.83-16.071 23.575-19.691 29.25-19.864 31.137-0.1159 1.2687-0.2127 7.6231-0.2152 14.121 0 9.0228-0.105 11.708-0.4293 11.363-0.2335-0.24779-3.0315-2.3575-6.2178-4.6882l-5.7934-4.2376-19.85 29.111c-10.918 16.011-19.963 29.618-20.101 30.238-0.1378 0.61997-0.2143 36.1-0.1698 78.845l0.081 77.717 46.192 67.949c25.406 37.372 46.383 67.973 46.616 68.003 0.2331 0.0297 9.3562-13.046 20.274-29.056zm-58.992-128.06c-21.436-62.878-38.974-114.56-38.974-114.84s5.6318-8.7691 12.515-18.854l12.515-18.336 19.919 14.61c18.131 13.299 20.186 14.609 22.893 14.595 1.6357-8e-3 3.2033-0.44102 3.4835-0.9614 0.3577-0.66418 0.504-2.6037 0.4912-6.5082l-0.018-5.5621-19.263-56.534 12.28-18.017c6.754-9.9096 12.472-18.017 12.707-18.017 0.594 0 78.168 227.74 77.937 228.8-0.103 0.47513-5.7012 8.9286-12.44 18.786l-12.253 17.922-26.325-76.941-20.039-14.595c-18.466-13.449-20.28-14.593-23.113-14.573-1.9286 0.0136-3.2256 0.46696-3.4813 1.2172-0.2242 0.65761-0.4076 3.4587-0.4076 6.2246v5.029l22.827 66.969c12.555 36.833 22.757 67.162 22.671 67.397-0.1666 0.45975-24.718 36.519-24.863 36.517-0.048-6.9e-4 -17.625-51.447-39.061-114.32z" fill="#3d9e41"/>
  <path d="m1122.6 579.5v-577.4h1154.8v1154.8h-1154.8zm192.58 377.61c7.7559-5.0402 13.781-15.085 19.59-32.662 7.7738-23.521 11.042-47.045 11.102-79.909 0.029-16.167-0.3863-25.258-1.7312-37.862-3.7963-35.576-14.778-66.313-27.029-75.651-12.142-9.2547-25.112-2.3564-34.472 18.335-7.9295 17.528-13.192 41.741-15.259 70.209-0.8237 11.344-0.7997 36.851 0.046 48.385 2.0426 27.87 7.319 51.837 15.327 69.622 4.2185 9.3683 10.462 17.361 15.614 19.987 1.1208 0.57131 2.4199 1.2352 2.887 1.4754 1.9159 0.98528 11.48-0.33878 13.926-1.9278zm268.32 0.075c7.4762-3.3062 14.375-12.632 19.36-26.17 1.307-3.5497 2.3763-7.1834 2.3763-8.075 0-0.89157-5.999-19.268-13.331-40.835l-13.331-39.214 13.331-38.551c7.3322-21.203 13.331-39.296 13.331-40.208 0-1.8646-2.3707-8.7486-5.1273-14.889-2.5009-5.5705-8.7233-14.246-12.01-16.744-6.1374-4.6653-13.922-5.1066-19.934-1.13-13.68 9.0487-25.315 42.512-28.833 82.927-1.4472 16.627-1.4372 41.981 0.023 58.759 2.7963 32.128 10.884 60.401 21.496 75.149 6.6205 9.2 14.811 12.448 22.649 8.9814zm108.88 0.37077c5.3501-2.183 10.864-8.2314 15.262-16.741 5.2078-10.077 10.335-26.139 13.286-41.62 2.6888-14.105 4.7093-37.177 4.4808-51.168l-0.1057-6.4764-37.497-0.99637 3.9178-19.928c2.1548-10.96 4.2655-21.721 4.6904-23.913 0.425-2.192 2.7884-14.258 5.2521-26.814 2.6811-13.663 4.4388-23.664 4.3781-24.909-0.1844-3.7874-7.2954-12.446-12.838-15.631-2.8204-1.6211-11.054-1.6406-13.926-0.033-8.5317 4.7763-14.776 14.39-20.739 31.931-5.7222 16.831-8.7669 32.434-10.71 54.887-0.536 6.1924-0.6438 10.973-0.6291 27.899 0.016 18.954 0.084 21.143 0.9323 30.389 3.9207 42.717 16.93 76.864 31.656 83.089 2.9626 1.2524 9.5617 1.2712 12.589 0.036zm-278.22-4.5181c0.2955-0.33263 0.5373-1.2688 0.5373-2.0805 0-0.81163-2.2972-14.186-5.1049-29.721l-5.1049-28.245 2.3857-6.9984c3.8649-11.338 6.2725-23.693 7.6896-39.461 0.9635-10.721 0.9002-36.146-0.1156-46.488-1.5882-16.168-3.9373-27.804-7.9689-39.472-4.329-12.529-8.2499-19.315-13.518-23.397-2.8385-2.1993-3.2295-2.2368-23.266-2.2368h-20.379l-0.086 108.54c-0.069 86.176 0 108.71 0.3396 109.34 0.4917 0.91583 63.782 1.1307 64.592 0.2193zm45.532-0.43608c8.8241-2.9653 15.707-12.722 22.059-31.272 5.5766-16.284 8.8047-33.866 10.211-55.617 0.7375-11.406 0.6734-33.733-0.1296-45.086-2.806-39.675-13.285-72.15-26.774-82.974l-3.3208-2.6647-43.475-0.0496-0.086 108.54c-0.069 86.176 0 108.71 0.3397 109.34 0.6336 1.1802 37.598 0.98561 41.176-0.21678zm-195.63-109.06v-108.6h-37.361l-0.1698 37.713-0.1698 37.713-2.94-6.8257c-1.6169-3.7542-6.2698-14.448-10.34-23.764-8.7779-20.093-11.089-25.406-17.256-39.668-2.677-6.1911-4.9024-10.635-5.2325-10.448-0.5348 0.30211-0.5804 8.0094-0.6608 111.66l-0.086 111.34 74.216-0.50701zm271.34 107.53c0.3113-2.3799 0.2371-213.95-0.076-215.39-0.2139-0.98851-4.3979-1.1993-19.779-0.99637l-19.508 0.25733-0.087 107.61c-0.048 59.185-0.015 108.17 0.074 108.85 0.1268 0.97641 4.3752 1.2455 19.666 1.2455 17.472 0 19.526-0.16422 19.71-1.5761zm346.9-110.41c0.063-81.557-0.016-111.85-0.2963-112.84-0.2105-0.74403-0.5706-1.3528-0.8003-1.3528-0.3948 0-5.0601 10.147-19.778 43.015-3.511 7.8409-8.657 19.288-11.436 25.437l-5.0519 11.181-7.6848-17.092c-4.2267-9.4004-9.8246-21.852-12.44-27.669-13.626-30.312-15.839-34.993-16.392-34.679-0.5567 0.31513-0.5907 6.4499-0.5907 106.68 0 58.492-0.09 106.35-0.2002 106.35-0.1101-1e-4 -0.3794-1.1539-0.5984-2.564-0.3423-2.2036-3.948-20.189-13.495-67.315-1.1805-5.827-2.4412-12.135-2.8015-14.017-0.3604-1.8823-2.9148-14.601-5.6764-28.264-2.7616-13.663-5.5524-27.532-6.2019-30.82-0.6495-3.288-1.8255-9.1168-2.6133-12.953-2.0201-9.8359-8.3179-41.121-8.7953-43.691-1.3451-7.2434-3.7509-18.7-4.1106-19.576-0.7957-1.9371-1.5028 0.17574-3.6146 10.8-1.1608 5.8404-4.0175 20.035-6.3481 31.543-2.3307 11.508-4.8454 24.062-5.5883 27.899s-3.5291 17.735-6.1916 30.888c-2.6625 13.152-6.5958 32.656-8.7407 43.342-10.176 50.696-12.881 63.768-13.199 63.768-0.1889 0-0.2552 0.41895-0.1473 0.931s-0.6473 5.0115-1.6781 9.9988c-1.8293 8.8497-2.1114 10.96-1.6473 12.321 0.125 0.36643 37.533 0.55325 83.129 0.41515l82.901-0.2511zm66.448 110.41c0.2692-2.0578 0.2692-71.511 0-73.569-0.1793-1.3708-1.1748-1.5761-7.642-1.5761-7.2095 0-7.4359-0.0607-7.4359-1.9928 0-1.39 0.2311-2.0053 0.7642-2.0341 0.4203-0.0227 3.4516-5e-3 6.7363 0.0385 3.2878 0.0439 6.3793-0.3742 6.8779-0.93032l0.9057-1.0102v-26.229c0-19.072-0.1112-26.556-0.4076-27.425-0.2915-0.85511-2.4681-1.1957-7.642-1.1957-7.0081 0-7.2345-0.0624-7.2345-1.9928 0-1.9304 0.2264-1.9928 7.2345-1.9928 5.1739 0 7.3505-0.34054 7.642-1.1956 0.3023-0.88666 0.4076-10.678 0.4076-37.887v-36.691l-0.8712-0.97172c-1.2317-1.3737-59.751-1.3161-60.627 0.0597-0.6434 1.01-0.657 3.2737-0.657 108.94 0 59.348 0.1019 108.2 0.2264 108.57 0.1245 0.36534 14.017 0.66426 30.872 0.66426 27.631 0 30.665-0.15502 30.851-1.5761zm242.14-1.6712c8.9798-8.2626 15.877-26.268 18.269-47.692 1.0975-9.8292 1.1921-31.104 0.1764-39.674-0.932-7.8641-2.6379-15.914-4.5503-21.474l-1.6718-4.8598 1.3221-6.0006c2.0156-9.1484 2.8259-17.934 2.8127-30.495-0.019-17.987-2.0022-31.405-6.459-43.7-2.6218-7.2325-5.1228-11.974-8.3051-15.745-4.279-5.0704-5.5869-5.3203-27.841-5.3203-18.519 0-20.674 0.16281-20.858 1.5761-0.1134 0.86683-0.2061 46.914-0.2061 102.33 0 59.057-0.1254 100.36-0.3029 99.805-0.1666-0.5206-2.3628-11.259-4.8805-23.863-2.5176-12.604-9.8959-49.37-16.396-81.703-6.5002-32.332-11.987-59.683-12.193-60.779-0.206-1.096-1.6042-8.0457-3.1069-15.444s-3.6934-18.254-4.8682-24.124c-1.1747-5.8704-2.3302-11.146-2.5677-11.725-0.7421-1.8068-1.4697-0.0602-2.8329 6.7995-1.471 7.4031-6.9443 34.698-10.32 51.468-7.0557 35.047-15.339 76.251-20.23 100.63-3.0779 15.344-5.8587 29.019-6.1795 30.389-0.3209 1.37-0.6867 3.1635-0.813 3.9855s-0.6478 3.5363-1.1591 6.0318c-0.5113 2.4955-1.6174 8.0285-2.458 12.296l-1.5284 7.7583-0.088-48.075c-0.061-33.479-0.2029-48.48-0.4661-49.411-0.3001-1.0605-2.3993-1.3359-10.183-1.3359h-9.8052l-0.176-106.11h-37.701l-0.088 107.61c-0.048 59.185-0.014 108.17 0.076 108.86 0.1308 1.0068 19.234 1.2043 96.378 0.99638l96.214-0.25936zm-470.17-349.47 19.698-28.897v-17.933c0-9.8632 0.078-17.933 0.1736-17.933 0.096 0 2.7685 3.8111 5.94 8.4692 3.1716 4.6581 5.9971 8.4692 6.279 8.4692 0.2818 0 9.454-13.113 20.383-29.14l19.87-29.14v-22.922l-46.276-135.76c-31.443-92.241-46.494-135.74-46.956-135.71-0.3739 0.0287-9.5446 13.143-20.379 29.144l-19.7 29.092-0.094 13.7c-0.052 7.5351-0.1735 13.7-0.27 13.7-0.097 0-2.6072-1.7935-5.5793-3.9855s-5.8697-3.9855-6.4392-3.9855c-0.6774 0-7.8448 9.9892-20.734 28.897l-19.698 28.897v158.92l45.937 67.447c31.551 46.325 46.283 67.465 47.042 67.503 0.7925 0.0399 6.6763-8.1173 20.803-28.841zm-59.395-128.9c-28.689-84.162-38.722-114.18-38.38-114.82 0.2553-0.47669 5.8503-8.7731 12.433-18.437l11.969-17.57 38.897 28.647 7.8119-0.50495 0.2056-12.835-19.118-56.111 24.687-36.133 38.805 113.81c21.342 62.598 38.805 114.11 38.805 114.48s-5.487 8.7088-12.194 18.539l-12.194 17.872-25.991-76.266-39.798-29.154-7.8118 0.59284-0.2074 11.812 22.86 67.189c12.573 36.954 22.707 67.368 22.52 67.587s-5.6719 8.2401-12.189 17.824c-6.5173 9.5844-11.943 17.426-12.058 17.426s-17.688-51.279-39.052-113.95z" fill="#389c3c"/>
 </g>
</svg>

